<svg xmlns="http://www.w3.org/2000/svg" viewBox="0 0 100 100">
  <defs>
    <linearGradient id="skinGrad2" x1="0%" y1="0%" x2="100%" y2="100%">
      <stop offset="0%" style="stop-color:#D2691E"/>
      <stop offset="100%" style="stop-color:#8B4513"/>
    </linearGradient>
  </defs>
  <!-- Face circle -->
  <circle cx="50" cy="50" r="45" fill="url(#skinGrad2)"/>
  <!-- Hair -->
  <ellipse cx="50" cy="22" rx="38" ry="18" fill="#1a1a1a"/>
  <ellipse cx="25" cy="28" rx="12" ry="15" fill="#1a1a1a"/>
  <ellipse cx="75" cy="28" rx="12" ry="15" fill="#1a1a1a"/>
  <!-- Mustache -->
  <path d="M30 62 Q40 58 50 62 Q60 58 70 62" fill="#1a1a1a"/>
  <ellipse cx="40" cy="63" rx="12" ry="5" fill="#1a1a1a"/>
  <ellipse cx="60" cy="63" rx="12" ry="5" fill="#1a1a1a"/>
  <!-- Eyes -->
  <ellipse cx="35" cy="42" rx="8" ry="6" fill="white"/>
  <ellipse cx="65" cy="42" rx="8" ry="6" fill="white"/>
  <circle cx="35" cy="42" r="4" fill="#2c1810"/>
  <circle cx="65" cy="42" r="4" fill="#2c1810"/>
  <!-- Eyebrows -->
  <path d="M25 35 Q35 30 45 35" stroke="#1a1a1a" stroke-width="4" fill="none"/>
  <path d="M55 35 Q65 30 75 35" stroke="#1a1a1a" stroke-width="4" fill="none"/>
  <!-- Nose -->
  <ellipse cx="50" cy="52" rx="6" ry="9" fill="#A0522D"/>
  <!-- Mouth -->
  <path d="M40 75 Q50 82 60 75" stroke="#8B0000" stroke-width="3" fill="none"/>
  <!-- Venezuela colors hint -->
  <rect x="10" y="80" width="12" height="4" fill="#FFCC00"/>
  <rect x="10" y="84" width="12" height="4" fill="#0033A0"/>
  <rect x="10" y="88" width="12" height="4" fill="#CE1126"/>
</svg>
